<?xml version="1.0" encoding="UTF-8"?>
<svg width="132px" height="26px" viewBox="0 0 132 26" version="1.1" xmlns="http://www.w3.org/2000/svg" xmlns:xlink="http://www.w3.org/1999/xlink">
    <title>HappySync</title>
    <g id="&gt;&gt;-원본" stroke="none" stroke-width="1" fill="none" fill-rule="evenodd">
        <g id="A02_간편회원가입" transform="translate(-60.000000, -56.000000)" fill="#1A1A1A" fill-rule="nonzero">
            <g id="Group-7" transform="translate(-34.451912, 0.000000)">
                <g id="Group-10" transform="translate(34.451912, 0.000000)">
                    <g id="logo-happysync" transform="translate(60.000000, 56.000000)">
                        <g id="HappySync" transform="translate(1.378000, 1.592000)">
                            <path d="M14.404,0.208 L10.738,0.208 C10.504,0.208 10.348,0.364 10.348,0.598 L10.348,7.566 L4.446,7.566 L4.446,0.598 C4.446,0.364 4.29,0.208 4.056,0.208 L0.39,0.208 C0.156,0.208 0,0.364 0,0.598 L0,18.018 C0,18.252 0.156,18.408 0.39,18.408 L4.056,18.408 C4.29,18.408 4.446,18.252 4.446,18.018 L4.446,11.466 L10.348,11.466 L10.348,18.018 C10.348,18.252 10.504,18.408 10.738,18.408 L14.404,18.408 C14.638,18.408 14.794,18.252 14.794,18.018 L14.794,0.598 C14.794,0.364 14.638,0.208 14.404,0.208 Z" id="Path"></path>
                            <path d="M29.588,5.668 L26.416,5.668 C26.182,5.668 26.052,5.824 26.026,6.058 L25.948,7.02 C25.064,6.032 23.894,5.356 22.464,5.356 C18.954,5.356 16.354,8.346 16.354,12.064 C16.354,15.782 18.954,18.772 22.464,18.772 C23.946,18.772 25.09,18.122 25.948,17.212 L26.026,18.018 C26.052,18.252 26.182,18.408 26.416,18.408 L29.588,18.408 C29.822,18.408 29.978,18.252 29.978,18.018 L29.978,6.058 C29.978,5.824 29.822,5.668 29.588,5.668 Z M23.01,14.846 C21.554,14.846 20.488,13.624 20.488,12.038 C20.488,10.452 21.554,9.282 23.01,9.282 C24.492,9.282 25.558,10.556 25.558,12.038 C25.558,13.546 24.492,14.846 23.01,14.846 Z" id="Shape"></path>
                            <path d="M39.156,5.356 C37.726,5.356 36.556,6.032 35.672,7.02 L35.594,6.058 C35.568,5.824 35.438,5.668 35.204,5.668 L32.032,5.668 C31.798,5.668 31.642,5.824 31.642,6.058 L31.642,18.018 C31.642,18.07 31.642,18.122 31.668,18.174 L31.668,22.958 C31.668,23.192 31.824,23.348 32.058,23.348 L35.568,23.348 C35.802,23.348 35.958,23.192 35.958,22.958 L35.958,17.498 C36.79,18.252 37.83,18.772 39.156,18.772 C42.666,18.772 45.266,15.782 45.266,12.064 C45.266,8.346 42.666,5.356 39.156,5.356 Z M38.61,14.846 C37.128,14.846 36.062,13.546 36.062,12.038 C36.062,10.556 37.128,9.282 38.61,9.282 C40.066,9.282 41.132,10.452 41.132,12.038 C41.132,13.624 40.066,14.846 38.61,14.846 Z" id="Shape"></path>
                            <path d="M54.08,5.356 C52.65,5.356 51.48,6.032 50.596,7.02 L50.518,6.058 C50.492,5.824 50.362,5.668 50.128,5.668 L46.956,5.668 C46.722,5.668 46.566,5.824 46.566,6.058 L46.566,18.018 C46.566,18.07 46.566,18.122 46.592,18.174 L46.592,22.958 C46.592,23.192 46.748,23.348 46.982,23.348 L50.492,23.348 C50.726,23.348 50.882,23.192 50.882,22.958 L50.882,17.498 C51.714,18.252 52.754,18.772 54.08,18.772 C57.59,18.772 60.19,15.782 60.19,12.064 C60.19,8.346 57.59,5.356 54.08,5.356 Z M53.534,14.846 C52.052,14.846 50.986,13.546 50.986,12.038 C50.986,10.556 52.052,9.282 53.534,9.282 C54.99,9.282 56.056,10.452 56.056,12.038 C56.056,13.624 54.99,14.846 53.534,14.846 Z" id="Shape"></path>
                            <path d="M73.554,5.668 L69.966,5.668 C69.758,5.668 69.576,5.772 69.498,5.98 L66.846,13.338 L64.194,5.98 C64.116,5.772 63.934,5.668 63.726,5.668 L60.19,5.668 C59.904,5.668 59.774,5.824 59.878,6.11 L64.792,18.434 L62.92,22.906 C62.79,23.192 62.946,23.348 63.232,23.348 L66.664,23.348 C66.872,23.348 67.054,23.244 67.132,23.036 L73.866,6.11 C73.97,5.824 73.84,5.668 73.554,5.668 Z" id="Path"></path>
                            <path d="M79.378,5.46 C79.378,4.836 79.898,4.186 81.12,4.186 C82.238,4.186 83.018,4.55 84.344,5.408 C84.552,5.538 84.734,5.512 84.89,5.304 L86.788,2.938 C86.918,2.73 86.918,2.574 86.736,2.392 C85.176,0.962 83.382,-3.55271368e-15 80.964,-3.55271368e-15 C77.974,-3.55271368e-15 75.036,1.898 75.036,5.356 C75.036,11.362 83.252,10.556 83.252,13.078 C83.252,14.092 82.238,14.56 81.224,14.56 C79.794,14.56 78.676,14.066 77.272,13 C77.064,12.818 76.83,12.87 76.7,13.052 L74.698,15.314 C74.542,15.496 74.568,15.704 74.698,15.86 C75.894,17.238 78.338,18.746 81.094,18.746 C84.162,18.746 87.594,16.952 87.594,13.13 C87.594,6.734 79.378,8.034 79.378,5.46 Z" id="Path"></path>
                            <path d="M101.738,5.668 L98.15,5.668 C97.942,5.668 97.76,5.772 97.682,5.98 L95.03,13.338 L92.378,5.98 C92.3,5.772 92.118,5.668 91.91,5.668 L88.374,5.668 C88.088,5.668 87.958,5.824 88.062,6.11 L92.976,18.434 L91.104,22.906 C90.974,23.192 91.13,23.348 91.416,23.348 L94.848,23.348 C95.056,23.348 95.238,23.244 95.316,23.036 L102.05,6.11 C102.154,5.824 102.024,5.668 101.738,5.668 Z" id="Path"></path>
                            <path d="M111.436,5.382 C109.642,5.382 108.368,6.318 107.588,7.618 L107.484,6.058 C107.458,5.824 107.328,5.668 107.094,5.668 L103.688,5.668 C103.454,5.668 103.298,5.824 103.298,6.058 L103.298,18.018 C103.298,18.252 103.454,18.408 103.688,18.408 L107.198,18.408 C107.432,18.408 107.588,18.252 107.588,18.018 L107.588,11.57 C107.588,10.946 108.186,9.386 109.772,9.386 C110.656,9.386 111.8,9.828 111.8,11.856 L111.8,18.018 C111.8,18.252 111.956,18.408 112.19,18.408 L115.7,18.408 C115.934,18.408 116.09,18.252 116.09,18.018 L116.09,10.946 C116.09,7.54 113.984,5.382 111.436,5.382 Z" id="Path"></path>
                            <path d="M124.072,14.742 C122.59,14.742 121.55,13.572 121.55,12.064 C121.55,10.53 122.59,9.36 124.072,9.36 C124.748,9.36 125.45,9.594 126.178,10.218 C126.386,10.4 126.568,10.452 126.75,10.27 L128.882,8.19 C129.038,8.034 129.064,7.826 128.908,7.644 C127.712,6.266 125.918,5.382 123.968,5.382 C120.302,5.382 117.416,8.32 117.416,12.064 C117.416,15.808 120.302,18.746 123.968,18.746 C125.97,18.746 127.79,17.862 128.986,16.484 C129.142,16.302 129.116,16.094 128.96,15.938 L126.828,13.884 C126.646,13.702 126.464,13.728 126.256,13.884 C125.528,14.508 124.8,14.742 124.072,14.742 Z" id="Path"></path>
                        </g>
                    </g>
                </g>
            </g>
        </g>
    </g>
</svg>